# xmcd
#
# Track frame offsets: 
#        150
#        11406
#        22887
#        33293
#        42363
#        53851
#        70317
#        80777
#        91147
#        102426
#        114937
#        140281
#        152194
#        163143
#        173598
#        182335
#        201644
#        212266
#        223965
#        235106
#        243712
#        255585
#        266656
#        278188
#
# Disc length: 3866 seconds
#
# Revision: 4
# Processed by: cddbd v1.5.2PL0 Copyright (c) Steve Scherf et al.
# Submitted via: ExactAudioCopy v0.99pb3
#
DISCID=500f1818
DTITLE=The Yardbirds - For Your Love
DYEAR=1999
DGENRE=Blues
TTITLE0=For Your Love
TTITLE1=I'm Not Talking
TTITLE2=Putty (In Your Hands)
TTITLE3=I Ain't Got You
TTITLE4=Got To Hurry
TTITLE5=I Ain't Done Wrong
TTITLE6=I Wish You Would
TTITLE7=A Certain Girl
TTITLE8=Sweet Music (take 3)
TTITLE9=Good Morning Little Schoolgirl
TTITLE10=My Girl Sloopy
TTITLE11=Baby What's Wrong
TTITLE12=Boom Boom
TTITLE13=Honey In Your Hips
TTITLE14=Talkin' 'Bout You
TTITLE15=I Wish You Would (long version)
TTITLE16=A Certain Girl (alternate take)
TTITLE17=Got To Hurry (take 4)
TTITLE18=Sweet Music (take 4)
TTITLE19=Heart Full Of Soul (sitar version)
TTITLE20=Steeled Blues
TTITLE21=Paff Bumm (German issue)
TTITLE22=Questa Volta
TTITLE23=Paff Bumm (Italian issue)
EXTD=
EXTT0=
EXTT1=
EXTT2=
EXTT3=
EXTT4=
EXTT5=
EXTT6=
EXTT7=
EXTT8=
EXTT9=
EXTT10=
EXTT11=
EXTT12=
EXTT13=
EXTT14=
EXTT15=
EXTT16=
EXTT17=
EXTT18=
EXTT19=
EXTT20=
EXTT21=
EXTT22=
EXTT23=
PLAYORDER=
